<svg width="375" height="830" viewBox="0 0 375 830" fill="none" xmlns="http://www.w3.org/2000/svg">
<g filter="url(#filter0_d_521_862)">
<path d="M-294.418 -100.886C-294.776 -113.95 -282.711 -123.842 -269.969 -120.929L224.426 -7.92429C240.635 -4.21924 245.508 16.4979 232.649 27.0396L-247.887 420.991C-260.745 431.532 -280.105 422.692 -280.559 406.07L-294.418 -100.886Z" fill="#176B87"/>
</g>
<path d="M-118.771 235.368C-121.761 220.238 -107.223 207.56 -92.6402 212.58L752.161 503.423C766.705 508.431 770.388 527.298 758.795 537.408L87.1901 1123.08C75.5967 1133.19 57.4064 1126.98 54.4246 1111.88L-118.771 235.368Z" fill="#053B50"/>
<path d="M369.85 -35.729C381.35 -45.3423 398.947 -39.3578 402.201 -24.7269L462.819 247.811C466.207 263.041 451.628 276.112 436.857 271.089L162.031 177.623C147.26 172.6 143.673 153.351 155.643 143.344L369.85 -35.729Z" fill="#176B87"/>
<path d="M387.85 30.271C399.35 20.6577 416.947 26.6422 420.201 41.2731L480.819 313.811C484.207 329.041 469.628 342.112 454.857 337.089L180.031 243.623C165.26 238.6 161.673 219.351 173.643 209.344L387.85 30.271Z" fill="#053B50"/>
<defs>
<filter id="filter0_d_521_862" x="-311.426" y="-138.441" width="574.408" height="587" filterUnits="userSpaceOnUse" color-interpolation-filters="sRGB">
<feFlood flood-opacity="0" result="BackgroundImageFix"/>
<feColorMatrix in="SourceAlpha" type="matrix" values="0 0 0 0 0 0 0 0 0 0 0 0 0 0 0 0 0 0 127 0" result="hardAlpha"/>
<feOffset dx="3" dy="3"/>
<feGaussianBlur stdDeviation="10"/>
<feColorMatrix type="matrix" values="0 0 0 0 0 0 0 0 0 0 0 0 0 0 0 0 0 0 0.15 0"/>
<feBlend mode="normal" in2="BackgroundImageFix" result="effect1_dropShadow_521_862"/>
<feBlend mode="normal" in="SourceGraphic" in2="effect1_dropShadow_521_862" result="shape"/>
</filter>
</defs>
</svg>
